<svg width="31" height="23" viewBox="0 0 31 23" fill="none" xmlns="http://www.w3.org/2000/svg">
<path d="M7.92379 2.20411C7.91811 2.21269 7.81738 2.21842 7.66699 2.21842C7.53079 2.21842 7.41871 2.21985 7.41729 2.22128C7.41445 2.22414 7.41019 2.86963 7.40594 3.65825L7.39884 5.08948L6.13756 4.0046C5.44521 3.40778 4.86919 2.91973 4.85926 2.91973C4.83656 2.91973 3.55825 4.42539 3.53981 4.47548C3.52704 4.5084 3.53271 4.51842 3.59939 4.57853C3.63912 4.61431 4.51166 5.36571 5.53884 6.24736L7.40452 7.85034V12.967C7.40594 15.7808 7.41161 18.0923 7.41729 18.1023C7.42722 18.1152 7.49816 18.1195 7.72658 18.1166L8.0231 18.1123L8.03019 13.2561L8.03729 8.39994L13.3364 12.9599C16.2505 15.4688 18.644 17.5241 18.6539 17.5284C18.6638 17.5327 18.6851 17.5241 18.7007 17.5098C18.7646 17.4511 19.9975 15.9826 20.0017 15.9612C20.0046 15.944 18.8497 14.9436 16.2604 12.7166C14.2004 10.9447 12.5149 9.49197 12.5149 9.48625C12.5135 9.47909 13.508 9.47337 14.7239 9.47193L16.9329 9.46764V6.20442V2.94119L15.1666 2.93404L13.4002 2.92688L13.3931 2.56192L13.386 2.19695L10.6592 2.19266C8.84882 2.19123 7.92946 2.19409 7.92379 2.20411Z" fill="white"/>
</svg>
