<svg width="60" height="60" viewBox="0 0 60 60" fill="none" xmlns="http://www.w3.org/2000/svg">
<path fill-rule="evenodd" clip-rule="evenodd" d="M30 60C34.6011 60 38.9603 58.9642 42.8571 57.113C52.9926 52.2982 60 41.9674 60 30C60 13.4315 46.5685 0 30 0C13.4315 0 0 13.4315 0 30C0 41.9674 7.00737 52.2982 17.1429 57.113C21.0397 58.9642 25.3989 60 30 60ZM30 46.2857C32.1189 46.2857 34.1432 45.8811 36 45.1448C42.0251 42.7558 46.2857 36.8755 46.2857 30C46.2857 21.0057 38.9944 13.7143 30 13.7143C21.0057 13.7143 13.7143 21.0057 13.7143 30C13.7143 36.8755 17.9749 42.7558 24 45.1448C25.8568 45.8811 27.8811 46.2857 30 46.2857Z" fill="#6C6A6A"/>
<path d="M24 45.4286C25.8567 46.1648 27.8811 46.2857 30 46.2857C32.1188 46.2857 34.1432 46.1648 36 45.4286L42.8571 57.4286C38.9603 59.2797 34.6011 60 30 60C25.3988 60 21.0397 59.2797 17.1429 57.4286C17.1429 57.4286 21.3221 50.1024 24 45.4286Z" fill="#D52828"/>
</svg>
